<mxfile host="app.diagrams.net" agent="Mozilla/5.0 (Windows NT 10.0; Win64; x64) AppleWebKit/537.36 (KHTML, like Gecko) Chrome/131.0.0.0 Safari/537.36" version="24.8.3">
  <diagram name="Strona-1" id="vcoBxP-8ElhmNKkCleeB">
    <mxGraphModel dx="1988" dy="1266" grid="1" gridSize="10" guides="1" tooltips="1" connect="1" arrows="1" fold="1" page="1" pageScale="1" pageWidth="1169" pageHeight="827" math="0" shadow="0">
      <root>
        <mxCell id="0" />
        <mxCell id="1" parent="0" />
        <mxCell id="fyAdcoN2OvKrnN1PbXqD-10" value="&lt;pre style=&quot;line-height: 0%;&quot;&gt;&lt;font color=&quot;#505050&quot; style=&quot;font-size: 14px;&quot;&gt;&lt;b&gt;mesaging broker&lt;/b&gt;&lt;/font&gt;&lt;/pre&gt;" style="sketch=0;aspect=fixed;pointerEvents=1;shadow=0;dashed=0;html=1;strokeColor=none;labelPosition=center;verticalLabelPosition=bottom;verticalAlign=top;align=center;fillColor=#505050;shape=mxgraph.mscae.general.tunnel;rotation=-90;" vertex="1" parent="1">
          <mxGeometry x="848" y="371" width="276.84" height="49.83" as="geometry" />
        </mxCell>
        <mxCell id="fyAdcoN2OvKrnN1PbXqD-61" value="" style="group" vertex="1" connectable="0" parent="1">
          <mxGeometry x="768" y="211" width="116.27999999999997" height="100" as="geometry" />
        </mxCell>
        <mxCell id="fyAdcoN2OvKrnN1PbXqD-38" value="&lt;pre style=&quot;line-height: 0px;&quot;&gt;&lt;span style=&quot;font-size: 14px;&quot;&gt;&lt;b&gt;&lt;font color=&quot;#505050&quot;&gt;mailing service&lt;/font&gt;&lt;/b&gt;&lt;/span&gt;&lt;/pre&gt;" style="sketch=0;aspect=fixed;pointerEvents=1;shadow=0;dashed=0;html=1;strokeColor=none;labelPosition=center;verticalLabelPosition=bottom;verticalAlign=top;align=center;fillColor=#505050;shape=mxgraph.mscae.enterprise.application_blank;movable=1;resizable=1;rotatable=1;deletable=1;editable=1;locked=0;connectable=1;" vertex="1" parent="fyAdcoN2OvKrnN1PbXqD-61">
          <mxGeometry width="116.28" height="100" as="geometry" />
        </mxCell>
        <mxCell id="fyAdcoN2OvKrnN1PbXqD-37" value="" style="sketch=0;aspect=fixed;pointerEvents=1;shadow=0;dashed=0;html=1;strokeColor=none;labelPosition=center;verticalLabelPosition=bottom;verticalAlign=top;align=center;fillColor=#505050;shape=mxgraph.azure.message2;" vertex="1" parent="fyAdcoN2OvKrnN1PbXqD-61">
          <mxGeometry x="33.139999999999986" y="40" width="50" height="37" as="geometry" />
        </mxCell>
        <mxCell id="fyAdcoN2OvKrnN1PbXqD-64" value="" style="group" vertex="1" connectable="0" parent="1">
          <mxGeometry x="768" y="461" width="116.28" height="100" as="geometry" />
        </mxCell>
        <mxCell id="fyAdcoN2OvKrnN1PbXqD-60" value="&lt;pre style=&quot;line-height: 0px;&quot;&gt;&lt;span style=&quot;font-size: 14px;&quot;&gt;&lt;b&gt;PDF creation&lt;/b&gt;&lt;/span&gt;&lt;/pre&gt;" style="sketch=0;aspect=fixed;pointerEvents=1;shadow=0;dashed=0;html=1;strokeColor=none;labelPosition=center;verticalLabelPosition=bottom;verticalAlign=top;align=center;fillColor=#505050;shape=mxgraph.mscae.enterprise.application_blank" vertex="1" parent="fyAdcoN2OvKrnN1PbXqD-64">
          <mxGeometry width="116.28" height="100" as="geometry" />
        </mxCell>
        <mxCell id="fyAdcoN2OvKrnN1PbXqD-62" value="" style="sketch=0;pointerEvents=1;shadow=0;dashed=0;html=1;strokeColor=none;labelPosition=center;verticalLabelPosition=bottom;verticalAlign=top;align=center;fillColor=#505050;shape=mxgraph.mscae.intune.intune_email_profiles" vertex="1" parent="fyAdcoN2OvKrnN1PbXqD-64">
          <mxGeometry x="38.139999999999986" y="35" width="50" height="50" as="geometry" />
        </mxCell>
        <mxCell id="fyAdcoN2OvKrnN1PbXqD-65" value="" style="group" vertex="1" connectable="0" parent="1">
          <mxGeometry x="519.37" y="461" width="211.82999999999998" height="131" as="geometry" />
        </mxCell>
        <mxCell id="fyAdcoN2OvKrnN1PbXqD-8" value="" style="sketch=0;aspect=fixed;pointerEvents=1;shadow=0;dashed=0;html=1;strokeColor=none;labelPosition=center;verticalLabelPosition=bottom;verticalAlign=top;align=center;fillColor=#505050;shape=mxgraph.mscae.enterprise.database_generic" vertex="1" parent="fyAdcoN2OvKrnN1PbXqD-65">
          <mxGeometry x="152.63" y="51" width="59.2" height="80" as="geometry" />
        </mxCell>
        <mxCell id="fyAdcoN2OvKrnN1PbXqD-23" value="" style="edgeStyle=none;orthogonalLoop=1;jettySize=auto;html=1;rounded=0;entryX=0.012;entryY=0.254;entryDx=0;entryDy=0;entryPerimeter=0;exitX=0.992;exitY=0.718;exitDx=0;exitDy=0;exitPerimeter=0;strokeColor=#505050;targetPerimeterSpacing=1;sourcePerimeterSpacing=1;flowAnimation=1;shadow=0;startArrow=none;startFill=0;endArrow=block;endFill=1;strokeWidth=2;" edge="1" parent="fyAdcoN2OvKrnN1PbXqD-65" source="fyAdcoN2OvKrnN1PbXqD-51" target="fyAdcoN2OvKrnN1PbXqD-8">
          <mxGeometry width="100" relative="1" as="geometry">
            <mxPoint x="113.63" y="71" as="sourcePoint" />
            <mxPoint x="168.63" y="31" as="targetPoint" />
            <Array as="points" />
          </mxGeometry>
        </mxCell>
        <mxCell id="fyAdcoN2OvKrnN1PbXqD-26" value="" style="edgeStyle=none;orthogonalLoop=1;jettySize=auto;html=1;rounded=0;entryX=1.013;entryY=0.814;entryDx=0;entryDy=0;entryPerimeter=0;exitX=0.021;exitY=0.383;exitDx=0;exitDy=0;exitPerimeter=0;strokeColor=#505050;targetPerimeterSpacing=1;sourcePerimeterSpacing=1;flowAnimation=1;shadow=0;startArrow=none;startFill=0;endArrow=block;endFill=1;strokeWidth=2;" edge="1" parent="fyAdcoN2OvKrnN1PbXqD-65" source="fyAdcoN2OvKrnN1PbXqD-8" target="fyAdcoN2OvKrnN1PbXqD-51">
          <mxGeometry width="100" relative="1" as="geometry">
            <mxPoint x="98.63" y="81" as="sourcePoint" />
            <mxPoint x="198.63" y="81" as="targetPoint" />
            <Array as="points" />
          </mxGeometry>
        </mxCell>
        <mxCell id="fyAdcoN2OvKrnN1PbXqD-56" value="" style="group" vertex="1" connectable="0" parent="fyAdcoN2OvKrnN1PbXqD-65">
          <mxGeometry width="116.28" height="100" as="geometry" />
        </mxCell>
        <mxCell id="fyAdcoN2OvKrnN1PbXqD-51" value="&lt;pre style=&quot;line-height: 0px;&quot;&gt;&lt;span style=&quot;font-size: 14px;&quot;&gt;&lt;b&gt;&lt;font color=&quot;#505050&quot;&gt;songs crud&lt;/font&gt;&lt;/b&gt;&lt;/span&gt;&lt;/pre&gt;" style="sketch=0;aspect=fixed;pointerEvents=1;shadow=0;dashed=0;html=1;strokeColor=none;labelPosition=center;verticalLabelPosition=bottom;verticalAlign=top;align=center;fillColor=#505050;shape=mxgraph.mscae.enterprise.application_blank" vertex="1" parent="fyAdcoN2OvKrnN1PbXqD-56">
          <mxGeometry width="116.28" height="100" as="geometry" />
        </mxCell>
        <mxCell id="fyAdcoN2OvKrnN1PbXqD-53" value="" style="sketch=0;pointerEvents=1;shadow=0;dashed=0;html=1;strokeColor=none;labelPosition=center;verticalLabelPosition=bottom;verticalAlign=top;align=center;fillColor=#505050;shape=mxgraph.mscae.intune.update" vertex="1" parent="fyAdcoN2OvKrnN1PbXqD-56">
          <mxGeometry x="34.139999999999986" y="35" width="48" height="50" as="geometry" />
        </mxCell>
        <mxCell id="fyAdcoN2OvKrnN1PbXqD-66" value="" style="group" vertex="1" connectable="0" parent="1">
          <mxGeometry x="518" y="181" width="213.2" height="130" as="geometry" />
        </mxCell>
        <mxCell id="fyAdcoN2OvKrnN1PbXqD-27" value="" style="sketch=0;aspect=fixed;pointerEvents=1;shadow=0;dashed=0;html=1;strokeColor=none;labelPosition=center;verticalLabelPosition=bottom;verticalAlign=top;align=center;fillColor=#505050;shape=mxgraph.mscae.enterprise.database_generic" vertex="1" parent="fyAdcoN2OvKrnN1PbXqD-66">
          <mxGeometry x="154" width="59.2" height="80" as="geometry" />
        </mxCell>
        <mxCell id="fyAdcoN2OvKrnN1PbXqD-29" value="" style="edgeStyle=none;orthogonalLoop=1;jettySize=auto;html=1;rounded=0;exitX=0.984;exitY=0.165;exitDx=0;exitDy=0;exitPerimeter=0;strokeColor=#505050;targetPerimeterSpacing=1;sourcePerimeterSpacing=1;flowAnimation=1;shadow=0;startArrow=none;startFill=0;endArrow=block;endFill=1;strokeWidth=2;" edge="1" parent="fyAdcoN2OvKrnN1PbXqD-66" source="fyAdcoN2OvKrnN1PbXqD-45">
          <mxGeometry width="100" relative="1" as="geometry">
            <mxPoint x="115" y="90" as="sourcePoint" />
            <mxPoint x="154" y="46" as="targetPoint" />
            <Array as="points" />
          </mxGeometry>
        </mxCell>
        <mxCell id="fyAdcoN2OvKrnN1PbXqD-30" value="" style="edgeStyle=none;orthogonalLoop=1;jettySize=auto;html=1;rounded=0;exitX=0.039;exitY=0.749;exitDx=0;exitDy=0;exitPerimeter=0;entryX=1.021;entryY=0.299;entryDx=0;entryDy=0;entryPerimeter=0;strokeColor=#505050;targetPerimeterSpacing=1;sourcePerimeterSpacing=1;flowAnimation=1;shadow=0;startArrow=none;startFill=0;endArrow=block;endFill=1;strokeWidth=2;" edge="1" parent="fyAdcoN2OvKrnN1PbXqD-66" source="fyAdcoN2OvKrnN1PbXqD-27" target="fyAdcoN2OvKrnN1PbXqD-45">
          <mxGeometry width="100" relative="1" as="geometry">
            <mxPoint x="100" y="100" as="sourcePoint" />
            <mxPoint x="115" y="101" as="targetPoint" />
            <Array as="points" />
          </mxGeometry>
        </mxCell>
        <mxCell id="fyAdcoN2OvKrnN1PbXqD-54" value="" style="group" vertex="1" connectable="0" parent="fyAdcoN2OvKrnN1PbXqD-66">
          <mxGeometry y="30" width="116.27999999999997" height="100" as="geometry" />
        </mxCell>
        <mxCell id="fyAdcoN2OvKrnN1PbXqD-45" value="&lt;pre style=&quot;line-height: 0px; font-size: 14px;&quot;&gt;&lt;pre style=&quot;line-height: 0px;&quot;&gt;&lt;span style=&quot;&quot;&gt;&lt;b&gt;&lt;font style=&quot;font-size: 14px;&quot; color=&quot;#505050&quot;&gt;authentication&lt;/font&gt;&lt;/b&gt;&lt;/span&gt;&lt;/pre&gt;&lt;pre style=&quot;line-height: 0px;&quot;&gt;&lt;span style=&quot;&quot;&gt;&lt;b&gt;&lt;font style=&quot;font-size: 14px;&quot; color=&quot;#505050&quot;&gt;(registration /&lt;/font&gt;&lt;/b&gt;&lt;/span&gt;&lt;/pre&gt;&lt;pre style=&quot;line-height: 0px;&quot;&gt;&lt;span style=&quot;&quot;&gt;&lt;b&gt;&lt;font style=&quot;font-size: 14px;&quot; color=&quot;#505050&quot;&gt; logging in)&lt;/font&gt;&lt;/b&gt;&lt;/span&gt;&lt;/pre&gt;&lt;/pre&gt;" style="sketch=0;aspect=fixed;pointerEvents=1;shadow=0;dashed=0;html=1;strokeColor=none;labelPosition=center;verticalLabelPosition=bottom;verticalAlign=top;align=center;fillColor=#505050;shape=mxgraph.mscae.enterprise.application_blank" vertex="1" parent="fyAdcoN2OvKrnN1PbXqD-54">
          <mxGeometry width="116.28" height="100" as="geometry" />
        </mxCell>
        <mxCell id="fyAdcoN2OvKrnN1PbXqD-46" value="" style="sketch=0;aspect=fixed;pointerEvents=1;shadow=0;dashed=0;html=1;strokeColor=none;labelPosition=center;verticalLabelPosition=bottom;verticalAlign=top;align=center;fillColor=#505050;shape=mxgraph.mscae.enterprise.lock_unlocked" vertex="1" parent="fyAdcoN2OvKrnN1PbXqD-54">
          <mxGeometry x="39.639999999999986" y="35" width="37" height="50" as="geometry" />
        </mxCell>
        <mxCell id="fyAdcoN2OvKrnN1PbXqD-73" value="" style="group" vertex="1" connectable="0" parent="1">
          <mxGeometry x="120" y="320.83000000000004" width="150" height="120" as="geometry" />
        </mxCell>
        <mxCell id="fyAdcoN2OvKrnN1PbXqD-86" value="" style="group" vertex="1" connectable="0" parent="fyAdcoN2OvKrnN1PbXqD-73">
          <mxGeometry x="-6" width="156.05263157894737" height="131.64368421052632" as="geometry" />
        </mxCell>
        <mxCell id="fyAdcoN2OvKrnN1PbXqD-4" value="" style="sketch=0;aspect=fixed;pointerEvents=1;shadow=0;dashed=0;html=1;strokeColor=none;labelPosition=center;verticalLabelPosition=bottom;verticalAlign=top;align=center;fillColor=#505050;shape=mxgraph.azure.laptop" vertex="1" parent="fyAdcoN2OvKrnN1PbXqD-86">
          <mxGeometry x="77.05263157894737" width="78.94736842105263" height="47.368421052631575" as="geometry" />
        </mxCell>
        <mxCell id="fyAdcoN2OvKrnN1PbXqD-5" value="&lt;pre&gt;&lt;font color=&quot;#505050&quot; style=&quot;font-size: 14px;&quot;&gt;&lt;b&gt;       clients&lt;/b&gt;&lt;/font&gt;&lt;/pre&gt;" style="sketch=0;aspect=fixed;pointerEvents=1;shadow=0;dashed=0;html=1;strokeColor=none;labelPosition=center;verticalLabelPosition=bottom;verticalAlign=top;align=center;fillColor=#505050;shape=mxgraph.mscae.enterprise.workstation_client" vertex="1" parent="fyAdcoN2OvKrnN1PbXqD-86">
          <mxGeometry y="20.17" width="110.52631578947367" height="110.52631578947367" as="geometry" />
        </mxCell>
        <mxCell id="fyAdcoN2OvKrnN1PbXqD-6" value="" style="sketch=0;aspect=fixed;pointerEvents=1;shadow=0;dashed=0;html=1;strokeColor=none;labelPosition=center;verticalLabelPosition=bottom;verticalAlign=top;align=center;fillColor=#505050;shape=mxgraph.azure.mobile" vertex="1" parent="fyAdcoN2OvKrnN1PbXqD-86">
          <mxGeometry x="128.42105263157896" y="92.16999999999999" width="27.631578947368418" height="39.473684210526315" as="geometry" />
        </mxCell>
        <mxCell id="fyAdcoN2OvKrnN1PbXqD-74" value="" style="edgeStyle=orthogonalEdgeStyle;orthogonalLoop=1;jettySize=auto;html=1;rounded=0;entryX=-0.017;entryY=0.877;entryDx=0;entryDy=0;entryPerimeter=0;exitX=1.017;exitY=0.372;exitDx=0;exitDy=0;exitPerimeter=0;strokeColor=#505050;flowAnimation=1;endArrow=block;endFill=1;strokeWidth=2;" edge="1" parent="1" source="fyAdcoN2OvKrnN1PbXqD-81" target="fyAdcoN2OvKrnN1PbXqD-45">
          <mxGeometry width="80" relative="1" as="geometry">
            <mxPoint x="268" y="331" as="sourcePoint" />
            <mxPoint x="528" y="325.83" as="targetPoint" />
            <Array as="points">
              <mxPoint x="458" y="368" />
              <mxPoint x="458" y="299" />
            </Array>
          </mxGeometry>
        </mxCell>
        <mxCell id="fyAdcoN2OvKrnN1PbXqD-76" value="" style="edgeStyle=orthogonalEdgeStyle;orthogonalLoop=1;jettySize=auto;html=1;rounded=0;exitX=0.183;exitY=0.073;exitDx=0;exitDy=0;exitPerimeter=0;strokeColor=#505050;flowAnimation=1;endArrow=block;endFill=1;strokeWidth=2;" edge="1" parent="1" source="fyAdcoN2OvKrnN1PbXqD-10" target="fyAdcoN2OvKrnN1PbXqD-60">
          <mxGeometry width="80" relative="1" as="geometry">
            <mxPoint x="928" y="511" as="sourcePoint" />
            <mxPoint x="928" y="531" as="targetPoint" />
            <Array as="points">
              <mxPoint x="908" y="484" />
              <mxPoint x="908" y="484" />
            </Array>
          </mxGeometry>
        </mxCell>
        <mxCell id="fyAdcoN2OvKrnN1PbXqD-77" value="" style="edgeStyle=orthogonalEdgeStyle;orthogonalLoop=1;jettySize=auto;html=1;rounded=0;exitX=0.183;exitY=0.073;exitDx=0;exitDy=0;exitPerimeter=0;strokeColor=#505050;flowAnimation=1;endArrow=block;endFill=1;strokeWidth=2;" edge="1" parent="1">
          <mxGeometry width="80" relative="1" as="geometry">
            <mxPoint x="965.28" y="291" as="sourcePoint" />
            <mxPoint x="884.28" y="291" as="targetPoint" />
            <Array as="points">
              <mxPoint x="908.28" y="291" />
              <mxPoint x="908.28" y="291" />
            </Array>
          </mxGeometry>
        </mxCell>
        <mxCell id="fyAdcoN2OvKrnN1PbXqD-79" value="" style="edgeStyle=orthogonalEdgeStyle;orthogonalLoop=1;jettySize=auto;html=1;rounded=0;flowAnimation=1;endArrow=block;endFill=1;entryX=0.631;entryY=0.095;entryDx=0;entryDy=0;entryPerimeter=0;strokeColor=#505050;strokeWidth=2;" edge="1" parent="1" target="fyAdcoN2OvKrnN1PbXqD-10">
          <mxGeometry width="80" relative="1" as="geometry">
            <mxPoint x="638" y="291" as="sourcePoint" />
            <mxPoint x="958" y="361" as="targetPoint" />
            <Array as="points">
              <mxPoint x="638" y="292" />
              <mxPoint x="688" y="292" />
              <mxPoint x="688" y="361" />
              <mxPoint x="958" y="361" />
              <mxPoint x="958" y="360" />
            </Array>
          </mxGeometry>
        </mxCell>
        <mxCell id="fyAdcoN2OvKrnN1PbXqD-80" style="edgeStyle=orthogonalEdgeStyle;rounded=0;orthogonalLoop=1;jettySize=auto;html=1;exitX=1.039;exitY=0.193;exitDx=0;exitDy=0;exitPerimeter=0;entryX=0.427;entryY=0.073;entryDx=0;entryDy=0;entryPerimeter=0;startArrow=none;startFill=0;endArrow=block;endFill=1;flowAnimation=1;strokeColor=#505050;strokeWidth=2;" edge="1" parent="1" source="fyAdcoN2OvKrnN1PbXqD-51" target="fyAdcoN2OvKrnN1PbXqD-10">
          <mxGeometry relative="1" as="geometry">
            <Array as="points">
              <mxPoint x="688" y="480" />
              <mxPoint x="688" y="416" />
            </Array>
          </mxGeometry>
        </mxCell>
        <mxCell id="fyAdcoN2OvKrnN1PbXqD-81" value="" style="whiteSpace=wrap;html=1;strokeWidth=5;strokeColor=#505050;" vertex="1" parent="1">
          <mxGeometry x="338" y="285.90999999999997" width="80" height="220" as="geometry" />
        </mxCell>
        <mxCell id="fyAdcoN2OvKrnN1PbXqD-82" value="" style="sketch=0;pointerEvents=1;shadow=0;dashed=0;html=1;strokeColor=none;labelPosition=center;verticalLabelPosition=bottom;verticalAlign=top;align=center;fillColor=#505050;shape=mxgraph.mscae.oms.dependency_monitor" vertex="1" parent="1">
          <mxGeometry x="358" y="366.5" width="50" height="49" as="geometry" />
        </mxCell>
        <mxCell id="fyAdcoN2OvKrnN1PbXqD-83" value="&lt;pre style=&quot;line-height: 0%;&quot;&gt;&lt;font size=&quot;1&quot; color=&quot;#505050&quot;&gt;&lt;b style=&quot;font-size: 14px;&quot;&gt;api&lt;/b&gt;&lt;/font&gt;&lt;/pre&gt;&lt;pre style=&quot;line-height: 0%;&quot;&gt;&lt;font size=&quot;1&quot; color=&quot;#505050&quot;&gt;&lt;b style=&quot;font-size: 14px;&quot;&gt;gateway&lt;/b&gt;&lt;/font&gt;&lt;/pre&gt;" style="text;html=1;align=center;verticalAlign=middle;resizable=0;points=[];autosize=1;strokeColor=none;fillColor=none;" vertex="1" parent="1">
          <mxGeometry x="338" y="508" width="80" height="50" as="geometry" />
        </mxCell>
        <mxCell id="fyAdcoN2OvKrnN1PbXqD-85" value="" style="edgeStyle=orthogonalEdgeStyle;orthogonalLoop=1;jettySize=auto;html=1;rounded=0;entryX=-0.013;entryY=0.137;entryDx=0;entryDy=0;entryPerimeter=0;strokeColor=#505050;flowAnimation=1;endArrow=block;endFill=1;strokeWidth=2;" edge="1" parent="1" target="fyAdcoN2OvKrnN1PbXqD-51">
          <mxGeometry width="80" relative="1" as="geometry">
            <mxPoint x="418" y="416" as="sourcePoint" />
            <mxPoint x="515" y="346.5" as="targetPoint" />
            <Array as="points">
              <mxPoint x="458" y="416" />
              <mxPoint x="458" y="475" />
            </Array>
          </mxGeometry>
        </mxCell>
        <mxCell id="fyAdcoN2OvKrnN1PbXqD-87" value="" style="edgeStyle=none;orthogonalLoop=1;jettySize=auto;html=1;rounded=0;flowAnimation=1;endArrow=block;endFill=1;strokeColor=#505050;strokeWidth=2;" edge="1" parent="1">
          <mxGeometry width="80" relative="1" as="geometry">
            <mxPoint x="258" y="394" as="sourcePoint" />
            <mxPoint x="338" y="394" as="targetPoint" />
            <Array as="points" />
          </mxGeometry>
        </mxCell>
      </root>
    </mxGraphModel>
  </diagram>
</mxfile>
